<svg width="504" height="297" viewBox="0 0 504 297" fill="none" xmlns="http://www.w3.org/2000/svg">
<path d="M57.5 112L70.4096 151.732H112.186L78.3881 176.287L91.2977 216.018L57.5 191.463L23.7023 216.018L36.6119 176.287L2.81425 151.732H44.5904L57.5 112Z" fill="#D9D9D9" fill-opacity="0.83"/>
<path d="M106 51L113.633 74.4934L138.336 74.4934L118.351 89.0132L125.985 112.507L106 97.9868L86.0153 112.507L93.6488 89.0132L73.6641 74.4934L98.3665 74.4934L106 51Z" fill="#D9D9D9" fill-opacity="0.83"/>
<path d="M373.5 0L385.062 35.5856H422.479L392.208 57.5788L403.771 93.1644L373.5 71.1712L343.229 93.1644L354.792 57.5788L324.521 35.5856H361.938L373.5 0Z" fill="#D9D9D9" fill-opacity="0.83"/>
<path d="M439 160L453.593 204.914H500.819L462.613 232.672L477.206 277.586L439 249.828L400.794 277.586L415.387 232.672L377.181 204.914H424.407L439 160Z" fill="#D9D9D9" fill-opacity="0.83"/>
<path d="M238 36L241.592 47.0557H253.217L243.812 53.8885L247.405 64.9443L238 58.1115L228.595 64.9443L232.188 53.8885L222.783 47.0557H234.408L238 36Z" fill="#D9D9D9" fill-opacity="0.83"/>
<path d="M131 0L134.592 11.0557H146.217L136.812 17.8885L140.405 28.9443L131 22.1115L121.595 28.9443L125.188 17.8885L115.783 11.0557H127.408L131 0Z" fill="#D9D9D9" fill-opacity="0.83"/>
<path d="M238 36L241.592 47.0557H253.217L243.812 53.8885L247.405 64.9443L238 58.1115L228.595 64.9443L232.188 53.8885L222.783 47.0557H234.408L238 36Z" fill="#D9D9D9" fill-opacity="0.83"/>
<path d="M458 87L461.592 98.0557H473.217L463.812 104.889L467.405 115.944L458 109.111L448.595 115.944L452.188 104.889L442.783 98.0557H454.408L458 87Z" fill="#D9D9D9" fill-opacity="0.83"/>
<path d="M124 265L127.592 276.056H139.217L129.812 282.889L133.405 293.944L124 287.111L114.595 293.944L118.188 282.889L108.783 276.056H120.408L124 265Z" fill="#D9D9D9" fill-opacity="0.83"/>
</svg>
